<?xml version="1.0" encoding="UTF-8"?>
<svg width="20px" height="20px" viewBox="0 0 20 20" version="1.1" xmlns="http://www.w3.org/2000/svg" xmlns:xlink="http://www.w3.org/1999/xlink">
    <!-- Generator: sketchtool 50.2 (55047) - http://www.bohemiancoding.com/sketch -->
    <title>6528AB53-38C9-4FE1-9803-A47570743561</title>
    <desc>Created with sketchtool.</desc>
    <defs></defs>
    <g id="Page-1" stroke="none" stroke-width="1" fill="none" fill-rule="evenodd">
        <g id="main" transform="translate(-1295.000000, -80.000000)" fill="#633B63" fill-rule="nonzero">
            <g id="magnifying-glass" transform="translate(1295.000000, 80.000000)">
                <path d="M19.5178151,17.3464706 L15.4031513,13.2319748 C16.3947479,11.8005462 16.8907983,10.2047899 16.8907983,8.44554622 C16.8907983,7.30193277 16.6687815,6.20819328 16.2247479,5.16457983 C15.7810084,4.12079832 15.1811345,3.22113445 14.4253782,2.46537815 C13.6696218,1.70962185 12.770084,1.1097479 11.7265126,0.665966387 C10.682605,0.222058824 9.58894958,0.00012605042 8.44533613,0.00012605042 C7.30180672,0.00012605042 6.20806723,0.222058824 5.16445378,0.665966387 C4.12067227,1.1097479 3.2210084,1.70962185 2.4652521,2.46537815 C1.70941176,3.22113445 1.10962185,4.12096639 0.665798319,5.16457983 C0.221932773,6.20831933 0,7.30193277 0,8.44554622 C0,9.58907563 0.221932773,10.682437 0.665798319,11.7263445 C1.10957983,12.769958 1.70941176,13.6694958 2.4652521,14.4252521 C3.2210084,15.1812605 4.12084034,15.7808824 5.16445378,16.224916 C6.20819328,16.6687395 7.30180672,16.8906303 8.44533613,16.8906303 C10.204958,16.8906303 11.8004622,16.3945378 13.2319748,15.4030252 L17.3466387,19.5055882 C17.6345378,19.8094118 17.9939496,19.9614286 18.4261765,19.9614286 C18.8420168,19.9614286 19.2021008,19.8094538 19.5057563,19.5055882 C19.8095378,19.2018067 19.9615546,18.8418908 19.9615546,18.4260504 C19.9616807,18.002437 19.8137395,17.642395 19.5178151,17.3464706 Z M12.2421429,12.2419328 C11.1905042,13.2937395 9.925,13.8196218 8.44533613,13.8196218 C6.96592437,13.8196218 5.70042017,13.2936134 4.64869748,12.2419328 C3.59697479,11.1902941 3.07113445,9.92495798 3.07113445,8.44529412 C3.07113445,6.96588235 3.59710084,5.70016807 4.64869748,4.64865546 C5.70021008,3.59689076 6.96592437,3.07109244 8.44533613,3.07109244 C9.92483193,3.07109244 11.1903361,3.59710084 12.2421429,4.64865546 C13.2939496,5.70016807 13.8197899,6.96588235 13.8197899,8.44529412 C13.8197899,9.92495798 13.2937815,11.1902941 12.2421429,12.2419328 Z" id="Shape"></path>
            </g>
        </g>
    </g>
</svg>