<svg xmlns="http://www.w3.org/2000/svg" width="58" height="70" viewBox="0 0 58 70">
    <g fill="none" fill-rule="nonzero">
        <path fill="#D1CEDA" d="M57.498 60.812l-7.302-9.442a10.574 10.574 0 0 0 5.777-4.301c1.72-2.99.942-6.638.19-10.162a27.905 27.905 0 0 1-.813-5.528c.085-1.867.357-3.72.812-5.532.748-3.527 1.53-7.173-.19-10.157-1.78-3.095-5.366-4.24-8.834-5.346A25.611 25.611 0 0 1 42.15 8.38a24.406 24.406 0 0 1-3.997-3.258C35.58 2.719 32.663 0 28.95 0c-3.713 0-6.63 2.72-9.204 5.12a24.412 24.412 0 0 1-3.996 3.26 25.605 25.605 0 0 1-4.987 1.96c-3.468 1.105-7.054 2.25-8.835 5.345-1.72 2.99-.942 6.638-.19 10.162.456 1.812.728 3.665.812 5.532a27.896 27.896 0 0 1-.812 5.533c-.748 3.526-1.53 7.172.19 10.157a10.575 10.575 0 0 0 5.782 4.3L.402 60.811a1.211 1.211 0 0 0 .21 1.693c.252.197.57.285.887.245l8.58-1.078 2.118 7.454A1.203 1.203 0 0 0 13.35 70c.37 0 .72-.172.948-.466l7.663-9.913a11.067 11.067 0 0 0 6.989 3.138 11.067 11.067 0 0 0 6.989-3.138l7.663 9.91a1.197 1.197 0 0 0 1.176.447c.444-.086.801-.416.925-.853l2.118-7.453 8.58 1.078a1.201 1.201 0 0 0 1.34-1.047 1.212 1.212 0 0 0-.243-.891zm-43.644 5.363l-1.75-6.162a1.2 1.2 0 0 0-1.303-.865l-6.72.844 6.023-7.786.664.213a25.604 25.604 0 0 1 4.982 1.96 24.406 24.406 0 0 1 3.997 3.259l.413.384-6.306 8.153zm15.096-5.83c-2.772 0-5.104-2.173-7.573-4.475a26.48 26.48 0 0 0-4.427-3.581 27.73 27.73 0 0 0-5.464-2.173c-3.171-1.012-6.168-1.968-7.483-4.254-1.255-2.183-.607-5.226.08-8.448.495-1.976.786-3.999.867-6.035a29.701 29.701 0 0 0-.865-6.034c-.688-3.221-1.336-6.264-.08-8.448 1.32-2.286 4.311-3.242 7.483-4.255a27.738 27.738 0 0 0 5.462-2.172 26.478 26.478 0 0 0 4.426-3.581c2.47-2.303 4.802-4.475 7.574-4.475 2.772 0 5.104 2.172 7.573 4.475a26.48 26.48 0 0 0 4.427 3.58 27.73 27.73 0 0 0 5.464 2.173c3.171 1.013 6.168 1.969 7.483 4.255 1.255 2.183.607 5.225-.08 8.448a29.714 29.714 0 0 0-.867 6.034c.08 2.036.37 4.059.865 6.035.688 3.221 1.336 6.264.08 8.448-1.32 2.286-4.311 3.242-7.483 4.254a27.738 27.738 0 0 0-5.462 2.173 26.478 26.478 0 0 0-4.426 3.58c-2.47 2.303-4.802 4.476-7.574 4.476zm18.155-1.197a1.2 1.2 0 0 0-1.302.865l-1.757 6.162-6.305-8.152.413-.384a24.412 24.412 0 0 1 3.996-3.26 25.605 25.605 0 0 1 4.987-1.96l.664-.213 6.024 7.786-6.72-.844z"/>
        <path fill="#D1CEDA" d="M28.95 9.655c-11.93 0-21.6 9.726-21.6 21.724s9.67 21.724 21.6 21.724c11.93 0 21.6-9.726 21.6-21.724-.014-11.992-9.676-21.71-21.6-21.724zm0 41.035c-10.604 0-19.2-8.646-19.2-19.31 0-10.665 8.596-19.311 19.2-19.311s19.2 8.646 19.2 19.31c-.013 10.66-8.601 19.298-19.2 19.31z"/>
        <path fill="#633B63" d="M42.796 26.338a2.395 2.395 0 0 0-1.94-.993H33.51l-2.28-7.033a2.397 2.397 0 0 0-4.56 0l-2.274 7.033h-7.352c-1.326 0-2.401 1.08-2.402 2.412 0 .773.367 1.499.988 1.953l5.947 4.345-2.271 7.033a2.417 2.417 0 0 0 1.54 3.041A2.389 2.389 0 0 0 23 43.786l5.951-4.343 5.948 4.344a2.355 2.355 0 0 0 2.823 0 2.386 2.386 0 0 0 .871-2.698l-2.272-7.034 5.948-4.345a2.423 2.423 0 0 0 .528-3.372zm-8.592 6.28a1.21 1.21 0 0 0-.436 1.351l2.542 7.867-6.654-4.862a1.194 1.194 0 0 0-1.41 0l-6.654 4.862 2.54-7.867a1.21 1.21 0 0 0-.436-1.349l-6.652-4.861h8.223a1.2 1.2 0 0 0 1.141-.834l2.542-7.867 2.542 7.865a1.2 1.2 0 0 0 1.14.834l8.224.002-6.652 4.86z"/>
    </g>
</svg>
