<svg xmlns="http://www.w3.org/2000/svg" width="68" height="70" viewBox="0 0 68 70">
    <g fill="none" fill-rule="nonzero">
        <path fill="#D1CEDA" d="M47.448 24.966h2.234v2.249h-2.234zM53.033 14.846h2.234v5.622h-2.234zM53.033 22.717h2.234v2.249h-2.234z"/>
        <path fill="#633B63" d="M38.511 17.095h2.234v2.249h-2.234zM27.34 7.201v14.392h2.235V5.702l4.468-2.999 4.468 3v9.143h2.234V7.2l2.731 1.833 1.24-1.87L34.043 0 23.37 7.163l1.24 1.871zM27.341 23.842h2.234v2.249h-2.234z"/>
        <path fill="#633B63" d="M32.926 5.85h2.234v11.245h-2.234zM32.926 19.344h2.234v2.249h-2.234z"/>
        <path fill="#D1CEDA" d="M13.936 20.468h2.234v4.498h-2.234zM36.277 63.199h2.234v2.249h-2.234zM31.809 63.199h2.234v2.249h-2.234zM27.341 63.199h2.234v2.249h-2.234z"/>
        <path fill="#D1CEDA" d="M62.795 29.464h-1.943V16.197l2.731 1.833 1.239-1.871L54.15 8.996l-10.674 7.163 1.24 1.871 2.732-1.833v6.52h2.234v-8.019L54.15 11.7l4.468 3v14.765H21.755V21.82l2.732 1.833 1.239-1.871-10.673-7.164L4.38 21.782l1.239 1.87L8.35 21.82v5.395h2.234v-6.894l4.468-3 4.468 3v9.143H5.293L.136 46.332H5v23.614h58.086V46.332h4.864l-5.155-16.868zM3.16 44.083l3.78-12.37H40.35l-3.781 12.37H3.16zm37.584 23.614H7.234V46.332h30.985l2.526-8.267v29.632zm20.107 0H42.979v-29.63l2.527 8.265h15.346v21.365zM47.155 44.083l-3.78-12.37h17.77l3.78 12.37h-17.77z"/>
    </g>
</svg>
