<svg xmlns="http://www.w3.org/2000/svg" width="71" height="70" viewBox="0 0 71 70">
    <g fill="none" fill-rule="nonzero">
        <path fill="#D1CEDA" d="M58.59 37.038c-.571 0-1.034.465-1.034 1.039 0 .727-.588 1.319-1.312 1.319a1.317 1.317 0 0 1-1.312-1.32c0-.573-.463-1.038-1.033-1.038-.57 0-1.033.465-1.033 1.039 0 1.873 1.515 3.397 3.378 3.397 1.863 0 3.379-1.524 3.379-3.397 0-.574-.463-1.04-1.034-1.04z"/>
        <path fill="#D1CEDA" d="M68.288 37.207l-2.908-.936a1.22 1.22 0 0 1-.785-.8 18.895 18.895 0 0 0-2.75-5.468 20.037 20.037 0 0 0-1.836-2.179c.43-1.892.662-4.034.632-5.885-.043-2.647-.57-4.2-1.608-4.747-.56-.295-2.263-1.192-11.48 3.051a3.35 3.35 0 0 0-.61.366 39.897 39.897 0 0 0-1.896-.463c-.077-.017-.156-.032-.234-.048a14.218 14.218 0 0 0 1.265-5.262 1.037 1.037 0 0 0-.986-1.085 1.034 1.034 0 0 0-1.079.992 12.103 12.103 0 0 1-3.513 8.013 11.955 11.955 0 0 1-4.352 2.796 29.8 29.8 0 0 0-8.317 0 11.953 11.953 0 0 1-4.353-2.796 12.058 12.058 0 0 1-3.525-8.558c0-3.233 1.252-6.273 3.525-8.559a11.924 11.924 0 0 1 8.511-3.545c3.215 0 6.238 1.26 8.511 3.545a12.096 12.096 0 0 1 2.244 3.116 1.03 1.03 0 0 0 1.388.46c.51-.257.715-.882.458-1.395a14.165 14.165 0 0 0-2.628-3.65A13.972 13.972 0 0 0 31.989.016a13.972 13.972 0 0 0-9.972 4.154 14.129 14.129 0 0 0-4.131 10.028c0 3.788 1.467 7.349 4.13 10.027a14.109 14.109 0 0 0 2.49 1.994c-.642.168-1.28.356-1.91.568a1.04 1.04 0 0 0-.653 1.315c.181.545.767.838 1.308.656a27.584 27.584 0 0 1 17.477 0 1.034 1.034 0 0 0 1.308-.656 1.04 1.04 0 0 0-.653-1.315c-.63-.212-1.268-.4-1.91-.568a14.103 14.103 0 0 0 4.29-4.217 39.409 39.409 0 0 1 1.952.434c-.011.045-.023.09-.033.136-.504 2.405-.47 4.532.098 6.321.51 1.609 1.433 2.912 2.74 3.874 1.54 1.133 3.4 1.623 5.086 1.623 1.268 0 2.437-.278 3.296-.767.97-.553 1.785-1.719 2.429-3.469.297.35.58.708.846 1.074a16.813 16.813 0 0 1 2.447 4.866 3.295 3.295 0 0 0 2.126 2.156l2.908.937a1.839 1.839 0 0 1 1.276 1.757v4.85c0 .805-.513 1.511-1.276 1.757l-4.686 1.51c-.75.241-1.384.76-1.786 1.458-1.84 3.2-4.735 5.847-8.603 7.869a1.627 1.627 0 0 0-.85 1.147l-1.5 7.99a.465.465 0 0 1-.456.38h-4.88a.465.465 0 0 1-.456-.38l-.83-4.415a1.624 1.624 0 0 0-1.847-1.313 42.96 42.96 0 0 1-6.437.481 40.97 40.97 0 0 1-4.736-.269 1.638 1.638 0 0 0-1.79 1.32l-.79 4.197a.465.465 0 0 1-.456.38h-4.88a.466.466 0 0 1-.456-.383l-1.445-7.547a1.63 1.63 0 0 0-.834-1.135C13.347 55.302 9.862 49.39 9.862 41.742c0-3.863.841-7.28 2.499-10.155 1.547-2.682 3.806-4.9 6.716-6.593.493-.287.662-.923.377-1.42a1.03 1.03 0 0 0-1.412-.379C12.4 26.477 8.998 31.54 8.062 37.97l-.298-.028a5.199 5.199 0 0 0-.379-2.074c-.6-1.498-1.83-2.58-3.137-2.755-1.03-.138-2.01.301-2.69 1.204-.985 1.31-.825 2.347-.516 2.986.52 1.078 1.858 1.841 4.078 2.32a4.076 4.076 0 0 1-.202.277c-1.311 1.655-2.857 2.02-3.86 2.055A1.088 1.088 0 0 0 0 43.039v.005c0 .583.457 1.059 1.037 1.085.074.004.151.006.232.006 1.27 0 3.308-.471 5.265-2.94.31-.39.561-.8.755-1.225a27.83 27.83 0 0 0 .562.056 27.45 27.45 0 0 0-.055 1.716c0 4.327 1.026 8.184 3.049 11.467 1.865 3.025 4.535 5.503 7.94 7.366l1.404 7.337a2.536 2.536 0 0 0 2.486 2.072h4.88c1.215 0 2.26-.872 2.486-2.072l.715-3.794c1.483.158 3.019.238 4.57.238 2.13 0 4.258-.149 6.332-.443l.753 4a2.537 2.537 0 0 0 2.486 2.07h4.88c1.215 0 2.26-.87 2.486-2.071l1.462-7.78c4.128-2.195 7.239-5.078 9.25-8.572a1.13 1.13 0 0 1 .628-.52l4.685-1.51A3.91 3.91 0 0 0 71 45.793v-4.849a3.91 3.91 0 0 0-2.712-3.737zM58.42 24.86c-.397 3.42-1.464 6.345-2.536 6.956-1.218.694-4.031.828-6.143-.726-2.115-1.555-2.819-4.352-2.036-8.088.079-.376.344-.7.71-.868 5.172-2.382 8.155-3.16 9.263-3.16.167 0 .292.017.375.05.332.357.769 2.384.367 5.836zM2.901 36.395c-.107-.222.146-.612.306-.825.253-.337.487-.405.663-.405.038 0 .073.003.104.007.476.064 1.141.59 1.494 1.47.083.208.19.552.216.98-1.43-.297-2.542-.727-2.783-1.227z"/>
        <path fill="#633B63" d="M32.993 13.007V9.289c1.275.091 1.748.677 2.185.677.547 0 .802-.696.802-1.044 0-.897-1.749-1.282-2.987-1.318v-.495c0-.22-.274-.421-.547-.421-.31 0-.528.201-.528.42v.532c-1.73.183-3.461 1.099-3.461 3.407 0 2.344 1.821 3.004 3.46 3.59v4.304c-1.857-.146-2.35-1.428-2.95-1.428-.456 0-.838.604-.838 1.044 0 .897 1.53 2.125 3.789 2.161v.568c0 .22.218.421.528.421.273 0 .547-.201.547-.421v-.623c1.967-.275 3.315-1.52 3.315-3.773 0-2.491-1.73-3.297-3.315-3.883zm-.966-.348c-.965-.366-1.749-.751-1.749-1.795 0-.953.729-1.41 1.749-1.539v3.334zm.856 6.246V15.04c.893.385 1.603.897 1.603 2.051 0 1.045-.62 1.63-1.603 1.814z"/>
    </g>
</svg>
